<mxfile host="app.diagrams.net" modified="2020-03-13T18:20:14.477Z" agent="Mozilla/5.0 (Windows NT 10.0; Win64; x64) AppleWebKit/537.36 (KHTML, like Gecko) Chrome/80.0.3987.132 Safari/537.36" etag="XOdUXkzGyN4EOv6_83ND" version="12.8.4" type="github">
  <diagram id="YATqtCZdEXe-RPMP8sWx" name="Page-1">
    <mxGraphModel dx="700" dy="758" grid="1" gridSize="10" guides="1" tooltips="1" connect="1" arrows="1" fold="1" page="1" pageScale="1" pageWidth="827" pageHeight="1169" math="0" shadow="0">
      <root>
        <mxCell id="0" />
        <mxCell id="1" parent="0" />
        <mxCell id="s8wQpAE-2O4rqMEYWjvz-52" style="edgeStyle=orthogonalEdgeStyle;rounded=0;orthogonalLoop=1;jettySize=auto;html=1;exitX=0;exitY=1;exitDx=0;exitDy=0;exitPerimeter=0;entryX=0.5;entryY=0;entryDx=0;entryDy=0;startArrow=none;startFill=0;endArrow=none;endFill=0;" parent="1" source="s8wQpAE-2O4rqMEYWjvz-54" target="s8wQpAE-2O4rqMEYWjvz-98" edge="1">
          <mxGeometry relative="1" as="geometry" />
        </mxCell>
        <mxCell id="s8wQpAE-2O4rqMEYWjvz-53" style="edgeStyle=orthogonalEdgeStyle;rounded=0;orthogonalLoop=1;jettySize=auto;html=1;exitX=0.5;exitY=0;exitDx=0;exitDy=0;exitPerimeter=0;entryX=0.5;entryY=1;entryDx=0;entryDy=0;startArrow=none;startFill=0;endArrow=none;endFill=0;" parent="1" source="s8wQpAE-2O4rqMEYWjvz-54" target="s8wQpAE-2O4rqMEYWjvz-111" edge="1">
          <mxGeometry relative="1" as="geometry" />
        </mxCell>
        <mxCell id="IelOW2ZgtdpwlblZwPoc-2" style="edgeStyle=orthogonalEdgeStyle;rounded=0;orthogonalLoop=1;jettySize=auto;html=1;exitX=1;exitY=0.3333333333333333;exitDx=0;exitDy=0;exitPerimeter=0;entryX=0;entryY=1;entryDx=0;entryDy=0;endArrow=none;endFill=0;" parent="1" source="s8wQpAE-2O4rqMEYWjvz-54" target="s8wQpAE-2O4rqMEYWjvz-81" edge="1">
          <mxGeometry relative="1" as="geometry" />
        </mxCell>
        <mxCell id="s8wQpAE-2O4rqMEYWjvz-54" value="Admin" style="shape=umlActor;verticalLabelPosition=bottom;labelBackgroundColor=#ffffff;verticalAlign=top;html=1;outlineConnect=0;" parent="1" vertex="1">
          <mxGeometry x="17" y="230" width="30" height="60" as="geometry" />
        </mxCell>
        <mxCell id="s8wQpAE-2O4rqMEYWjvz-55" style="edgeStyle=orthogonalEdgeStyle;rounded=0;orthogonalLoop=1;jettySize=auto;html=1;endArrow=none;endFill=0;" parent="1" source="s8wQpAE-2O4rqMEYWjvz-57" target="s8wQpAE-2O4rqMEYWjvz-100" edge="1">
          <mxGeometry relative="1" as="geometry" />
        </mxCell>
        <mxCell id="s8wQpAE-2O4rqMEYWjvz-56" style="edgeStyle=orthogonalEdgeStyle;rounded=0;orthogonalLoop=1;jettySize=auto;html=1;exitX=1;exitY=0.3333333333333333;exitDx=0;exitDy=0;exitPerimeter=0;entryX=0;entryY=0.5;entryDx=0;entryDy=0;startArrow=none;startFill=0;endArrow=none;endFill=0;" parent="1" source="s8wQpAE-2O4rqMEYWjvz-57" target="s8wQpAE-2O4rqMEYWjvz-69" edge="1">
          <mxGeometry relative="1" as="geometry">
            <Array as="points">
              <mxPoint x="47" y="500" />
              <mxPoint x="212" y="500" />
              <mxPoint x="212" y="470" />
            </Array>
          </mxGeometry>
        </mxCell>
        <mxCell id="s8wQpAE-2O4rqMEYWjvz-57" value="Systeem" style="shape=umlActor;verticalLabelPosition=bottom;labelBackgroundColor=#ffffff;verticalAlign=top;html=1;outlineConnect=0;" parent="1" vertex="1">
          <mxGeometry x="17" y="490" width="30" height="60" as="geometry" />
        </mxCell>
        <mxCell id="s8wQpAE-2O4rqMEYWjvz-58" value="Mailserver" style="shape=umlActor;verticalLabelPosition=bottom;labelBackgroundColor=#ffffff;verticalAlign=top;html=1;outlineConnect=0;" parent="1" vertex="1">
          <mxGeometry x="797" y="20" width="30" height="60" as="geometry" />
        </mxCell>
        <mxCell id="s8wQpAE-2O4rqMEYWjvz-59" value="Fileserver" style="shape=umlActor;verticalLabelPosition=bottom;labelBackgroundColor=#ffffff;verticalAlign=top;html=1;outlineConnect=0;" parent="1" vertex="1">
          <mxGeometry x="797" y="160" width="30" height="60" as="geometry" />
        </mxCell>
        <mxCell id="s8wQpAE-2O4rqMEYWjvz-60" value="Printer&lt;br&gt;" style="shape=umlActor;verticalLabelPosition=bottom;labelBackgroundColor=#ffffff;verticalAlign=top;html=1;outlineConnect=0;" parent="1" vertex="1">
          <mxGeometry x="797" y="440" width="30" height="60" as="geometry" />
        </mxCell>
        <mxCell id="s8wQpAE-2O4rqMEYWjvz-61" style="edgeStyle=orthogonalEdgeStyle;rounded=0;orthogonalLoop=1;jettySize=auto;html=1;exitX=0.75;exitY=0.1;exitDx=0;exitDy=0;entryX=0;entryY=0.5;entryDx=0;entryDy=0;endArrow=none;endFill=0;exitPerimeter=0;" parent="1" source="s8wQpAE-2O4rqMEYWjvz-54" target="s8wQpAE-2O4rqMEYWjvz-77" edge="1">
          <mxGeometry relative="1" as="geometry">
            <mxPoint x="148.64161963092556" y="253.07468171810388" as="sourcePoint" />
          </mxGeometry>
        </mxCell>
        <mxCell id="s8wQpAE-2O4rqMEYWjvz-62" style="edgeStyle=orthogonalEdgeStyle;rounded=0;orthogonalLoop=1;jettySize=auto;html=1;entryX=0;entryY=0;entryDx=0;entryDy=0;endArrow=none;endFill=0;exitX=0.5;exitY=0.5;exitDx=0;exitDy=0;exitPerimeter=0;" parent="1" source="s8wQpAE-2O4rqMEYWjvz-54" target="s8wQpAE-2O4rqMEYWjvz-82" edge="1">
          <mxGeometry relative="1" as="geometry">
            <mxPoint x="57" y="265" as="sourcePoint" />
            <Array as="points">
              <mxPoint x="127" y="260" />
              <mxPoint x="127" y="280" />
              <mxPoint x="218" y="280" />
            </Array>
          </mxGeometry>
        </mxCell>
        <mxCell id="s8wQpAE-2O4rqMEYWjvz-63" style="edgeStyle=orthogonalEdgeStyle;rounded=0;orthogonalLoop=1;jettySize=auto;html=1;exitX=1;exitY=1;exitDx=0;exitDy=0;endArrow=none;endFill=0;exitPerimeter=0;" parent="1" source="s8wQpAE-2O4rqMEYWjvz-54" target="s8wQpAE-2O4rqMEYWjvz-92" edge="1">
          <mxGeometry relative="1" as="geometry">
            <mxPoint x="127" y="270" as="sourcePoint" />
            <Array as="points">
              <mxPoint x="127" y="290" />
              <mxPoint x="127" y="320" />
              <mxPoint x="247" y="320" />
            </Array>
          </mxGeometry>
        </mxCell>
        <mxCell id="s8wQpAE-2O4rqMEYWjvz-65" value="kamer reserveren" style="ellipse;whiteSpace=wrap;html=1;" parent="1" vertex="1">
          <mxGeometry x="97" y="610" width="120" height="20" as="geometry" />
        </mxCell>
        <mxCell id="s8wQpAE-2O4rqMEYWjvz-66" style="edgeStyle=orthogonalEdgeStyle;rounded=0;orthogonalLoop=1;jettySize=auto;html=1;entryX=1;entryY=0.5;entryDx=0;entryDy=0;endArrow=none;endFill=0;dashed=1;exitX=0;exitY=0.5;exitDx=0;exitDy=0;startArrow=open;startFill=0;" parent="1" source="s8wQpAE-2O4rqMEYWjvz-67" target="s8wQpAE-2O4rqMEYWjvz-65" edge="1">
          <mxGeometry relative="1" as="geometry">
            <Array as="points">
              <mxPoint x="277" y="620" />
              <mxPoint x="277" y="620" />
            </Array>
          </mxGeometry>
        </mxCell>
        <mxCell id="s8wQpAE-2O4rqMEYWjvz-67" value="pushbericht sturen" style="ellipse;whiteSpace=wrap;html=1;" parent="1" vertex="1">
          <mxGeometry x="367" y="605" width="120" height="30" as="geometry" />
        </mxCell>
        <mxCell id="s8wQpAE-2O4rqMEYWjvz-68" style="edgeStyle=orthogonalEdgeStyle;rounded=0;orthogonalLoop=1;jettySize=auto;html=1;exitX=1;exitY=0.5;exitDx=0;exitDy=0;startArrow=none;startFill=0;endArrow=none;endFill=0;entryX=0.5;entryY=0.5;entryDx=0;entryDy=0;entryPerimeter=0;" parent="1" source="s8wQpAE-2O4rqMEYWjvz-69" target="s8wQpAE-2O4rqMEYWjvz-60" edge="1">
          <mxGeometry relative="1" as="geometry" />
        </mxCell>
        <mxCell id="s8wQpAE-2O4rqMEYWjvz-69" value="Factuur afprinten" style="ellipse;whiteSpace=wrap;html=1;" parent="1" vertex="1">
          <mxGeometry x="377" y="460" width="120" height="20" as="geometry" />
        </mxCell>
        <mxCell id="s8wQpAE-2O4rqMEYWjvz-70" style="edgeStyle=orthogonalEdgeStyle;rounded=0;orthogonalLoop=1;jettySize=auto;html=1;entryX=1;entryY=0.5;entryDx=0;entryDy=0;endArrow=none;endFill=0;" parent="1" source="s8wQpAE-2O4rqMEYWjvz-71" target="s8wQpAE-2O4rqMEYWjvz-67" edge="1">
          <mxGeometry relative="1" as="geometry">
            <Array as="points">
              <mxPoint x="537" y="620" />
              <mxPoint x="537" y="620" />
            </Array>
          </mxGeometry>
        </mxCell>
        <mxCell id="s8wQpAE-2O4rqMEYWjvz-71" value="Admin" style="shape=umlActor;verticalLabelPosition=bottom;labelBackgroundColor=#ffffff;verticalAlign=top;html=1;outlineConnect=0;" parent="1" vertex="1">
          <mxGeometry x="797" y="590" width="30" height="60" as="geometry" />
        </mxCell>
        <mxCell id="s8wQpAE-2O4rqMEYWjvz-72" style="edgeStyle=orthogonalEdgeStyle;rounded=0;orthogonalLoop=1;jettySize=auto;html=1;entryX=0;entryY=0.5;entryDx=0;entryDy=0;endArrow=none;endFill=0;" parent="1" source="s8wQpAE-2O4rqMEYWjvz-73" target="s8wQpAE-2O4rqMEYWjvz-65" edge="1">
          <mxGeometry relative="1" as="geometry" />
        </mxCell>
        <mxCell id="s8wQpAE-2O4rqMEYWjvz-73" value="Klant" style="shape=umlActor;verticalLabelPosition=bottom;labelBackgroundColor=#ffffff;verticalAlign=top;html=1;outlineConnect=0;" parent="1" vertex="1">
          <mxGeometry x="17" y="590" width="30" height="60" as="geometry" />
        </mxCell>
        <mxCell id="s8wQpAE-2O4rqMEYWjvz-74" value="&amp;lt;&amp;lt;include&amp;gt;&amp;gt;" style="text;html=1;align=center;verticalAlign=middle;resizable=0;points=[];autosize=1;" parent="1" vertex="1">
          <mxGeometry x="262" y="600" width="80" height="20" as="geometry" />
        </mxCell>
        <mxCell id="s8wQpAE-2O4rqMEYWjvz-75" style="edgeStyle=orthogonalEdgeStyle;rounded=0;orthogonalLoop=1;jettySize=auto;html=1;exitX=1;exitY=0.5;exitDx=0;exitDy=0;entryX=0;entryY=0.5;entryDx=0;entryDy=0;dashed=1;endArrow=none;endFill=0;startArrow=open;startFill=0;" parent="1" source="s8wQpAE-2O4rqMEYWjvz-77" target="s8wQpAE-2O4rqMEYWjvz-83" edge="1">
          <mxGeometry relative="1" as="geometry" />
        </mxCell>
        <mxCell id="s8wQpAE-2O4rqMEYWjvz-76" value="&amp;lt;&amp;lt;extend&amp;gt;&amp;gt;" style="text;html=1;align=center;verticalAlign=middle;resizable=0;points=[];labelBackgroundColor=#ffffff;" parent="s8wQpAE-2O4rqMEYWjvz-75" vertex="1" connectable="0">
          <mxGeometry x="0.2778" y="2" relative="1" as="geometry">
            <mxPoint as="offset" />
          </mxGeometry>
        </mxCell>
        <mxCell id="s8wQpAE-2O4rqMEYWjvz-77" value="kamer beheren" style="ellipse;whiteSpace=wrap;html=1;" parent="1" vertex="1">
          <mxGeometry x="217" y="160" width="80" height="30" as="geometry" />
        </mxCell>
        <mxCell id="s8wQpAE-2O4rqMEYWjvz-78" style="edgeStyle=orthogonalEdgeStyle;rounded=0;orthogonalLoop=1;jettySize=auto;html=1;exitX=1;exitY=0.5;exitDx=0;exitDy=0;entryX=0;entryY=0.5;entryDx=0;entryDy=0;dashed=1;endArrow=open;endFill=0;" parent="1" source="s8wQpAE-2O4rqMEYWjvz-81" target="s8wQpAE-2O4rqMEYWjvz-85" edge="1">
          <mxGeometry relative="1" as="geometry" />
        </mxCell>
        <mxCell id="s8wQpAE-2O4rqMEYWjvz-79" style="edgeStyle=orthogonalEdgeStyle;rounded=0;orthogonalLoop=1;jettySize=auto;html=1;exitX=1;exitY=1;exitDx=0;exitDy=0;entryX=0;entryY=0.5;entryDx=0;entryDy=0;dashed=1;endArrow=open;endFill=0;" parent="1" source="s8wQpAE-2O4rqMEYWjvz-81" target="s8wQpAE-2O4rqMEYWjvz-86" edge="1">
          <mxGeometry relative="1" as="geometry">
            <Array as="points">
              <mxPoint x="285" y="290" />
              <mxPoint x="332" y="290" />
              <mxPoint x="332" y="318" />
            </Array>
          </mxGeometry>
        </mxCell>
        <mxCell id="s8wQpAE-2O4rqMEYWjvz-80" value="&amp;lt;&amp;lt;extend&amp;gt;&amp;gt;" style="text;html=1;align=center;verticalAlign=middle;resizable=0;points=[];labelBackgroundColor=#ffffff;" parent="s8wQpAE-2O4rqMEYWjvz-79" vertex="1" connectable="0">
          <mxGeometry x="0.0299" y="-3" relative="1" as="geometry">
            <mxPoint as="offset" />
          </mxGeometry>
        </mxCell>
        <mxCell id="s8wQpAE-2O4rqMEYWjvz-81" value="Boeking beheren&lt;span style=&quot;color: rgba(0 , 0 , 0 , 0) ; font-family: monospace ; font-size: 0px ; white-space: nowrap&quot;&gt;%3CmxGraphModel%3E%3Croot%3E%3CmxCell%20id%3D%220%22%2F%3E%3CmxCell%20id%3D%221%22%20parent%3D%220%22%2F%3E%3CmxCell%20id%3D%222%22%20value%3D%22kamer%20beheren%22%20style%3D%22ellipse%3BwhiteSpace%3Dwrap%3Bhtml%3D1%3B%22%20vertex%3D%221%22%20parent%3D%221%22%3E%3CmxGeometry%20x%3D%22310%22%20y%3D%22-20%22%20width%3D%2280%22%20height%3D%2230%22%20as%3D%22geometry%22%2F%3E%3C%2FmxCell%3E%3C%2Froot%3E%3C%2FmxGraphModel%3E&lt;/span&gt;&lt;span style=&quot;color: rgba(0 , 0 , 0 , 0) ; font-family: monospace ; font-size: 0px ; white-space: nowrap&quot;&gt;%3CmxGraphModel%3E%3Croot%3E%3CmxCell%20id%3D%220%22%2F%3E%3CmxCell%20id%3D%221%22%20parent%3D%220%22%2F%3E%3CmxCell%20id%3D%222%22%20value%3D%22kamer%20beheren%22%20style%3D%22ellipse%3BwhiteSpace%3Dwrap%3Bhtml%3D1%3B%22%20vertex%3D%221%22%20parent%3D%221%22%3E%3CmxGeometry%20x%3D%22310%22%20y%3D%22-20%22%20width%3D%2280%22%20height%3D%2230%22%20as%3D%22geometry%22%2F%3E%3C%2FmxCell%3E%3C%2Froot%3E%3C%2FmxGraphModel%3E&lt;/span&gt;" style="ellipse;whiteSpace=wrap;html=1;" parent="1" vertex="1">
          <mxGeometry x="217" y="220" width="80" height="30" as="geometry" />
        </mxCell>
        <mxCell id="s8wQpAE-2O4rqMEYWjvz-82" value="Prijzen beheren" style="ellipse;whiteSpace=wrap;html=1;" parent="1" vertex="1">
          <mxGeometry x="207" y="285" width="80" height="30" as="geometry" />
        </mxCell>
        <mxCell id="s8wQpAE-2O4rqMEYWjvz-83" value="kamer inactief zetten" style="ellipse;whiteSpace=wrap;html=1;" parent="1" vertex="1">
          <mxGeometry x="437" y="120" width="100" height="30" as="geometry" />
        </mxCell>
        <mxCell id="IelOW2ZgtdpwlblZwPoc-3" style="edgeStyle=orthogonalEdgeStyle;rounded=0;orthogonalLoop=1;jettySize=auto;html=1;exitX=1;exitY=1;exitDx=0;exitDy=0;entryX=0.5;entryY=0;entryDx=0;entryDy=0;endArrow=open;endFill=0;dashed=1;" parent="1" source="s8wQpAE-2O4rqMEYWjvz-84" target="s8wQpAE-2O4rqMEYWjvz-102" edge="1">
          <mxGeometry relative="1" as="geometry" />
        </mxCell>
        <mxCell id="s8wQpAE-2O4rqMEYWjvz-84" value="Voorschot beheren" style="ellipse;whiteSpace=wrap;html=1;" parent="1" vertex="1">
          <mxGeometry x="477" y="175" width="100" height="30" as="geometry" />
        </mxCell>
        <mxCell id="s8wQpAE-2O4rqMEYWjvz-85" value="Boeking annuleren" style="ellipse;whiteSpace=wrap;html=1;" parent="1" vertex="1">
          <mxGeometry x="367" y="250" width="100" height="35" as="geometry" />
        </mxCell>
        <mxCell id="s8wQpAE-2O4rqMEYWjvz-86" value="Uitchecking bevestigen" style="ellipse;whiteSpace=wrap;html=1;" parent="1" vertex="1">
          <mxGeometry x="367" y="300" width="100" height="35" as="geometry" />
        </mxCell>
        <mxCell id="s8wQpAE-2O4rqMEYWjvz-88" value="&amp;lt;&amp;lt;extend&amp;gt;&amp;gt;" style="text;html=1;align=center;verticalAlign=middle;resizable=0;points=[];autosize=1;" parent="1" vertex="1">
          <mxGeometry x="312" y="240" width="80" height="20" as="geometry" />
        </mxCell>
        <mxCell id="s8wQpAE-2O4rqMEYWjvz-89" style="edgeStyle=orthogonalEdgeStyle;rounded=0;orthogonalLoop=1;jettySize=auto;html=1;exitX=1;exitY=0;exitDx=0;exitDy=0;entryX=0;entryY=0.5;entryDx=0;entryDy=0;dashed=1;endArrow=open;endFill=0;" parent="1" source="s8wQpAE-2O4rqMEYWjvz-81" target="s8wQpAE-2O4rqMEYWjvz-84" edge="1">
          <mxGeometry relative="1" as="geometry" />
        </mxCell>
        <mxCell id="s8wQpAE-2O4rqMEYWjvz-90" value="&amp;lt;&amp;lt;include&amp;gt;&amp;gt;" style="text;html=1;align=center;verticalAlign=middle;resizable=0;points=[];labelBackgroundColor=#ffffff;" parent="s8wQpAE-2O4rqMEYWjvz-89" vertex="1" connectable="0">
          <mxGeometry x="0.4066" y="2" relative="1" as="geometry">
            <mxPoint as="offset" />
          </mxGeometry>
        </mxCell>
        <mxCell id="s8wQpAE-2O4rqMEYWjvz-91" style="edgeStyle=orthogonalEdgeStyle;rounded=0;orthogonalLoop=1;jettySize=auto;html=1;exitX=1;exitY=0.5;exitDx=0;exitDy=0;dashed=1;endArrow=open;endFill=0;" parent="1" source="s8wQpAE-2O4rqMEYWjvz-92" target="s8wQpAE-2O4rqMEYWjvz-95" edge="1">
          <mxGeometry relative="1" as="geometry" />
        </mxCell>
        <mxCell id="s8wQpAE-2O4rqMEYWjvz-92" value="Factuur beheren" style="ellipse;whiteSpace=wrap;html=1;" parent="1" vertex="1">
          <mxGeometry x="187" y="380" width="120" height="30" as="geometry" />
        </mxCell>
        <mxCell id="s8wQpAE-2O4rqMEYWjvz-93" style="edgeStyle=orthogonalEdgeStyle;rounded=0;orthogonalLoop=1;jettySize=auto;html=1;entryX=0.5;entryY=0;entryDx=0;entryDy=0;endArrow=open;endFill=0;dashed=1;startArrow=none;startFill=0;" parent="1" source="s8wQpAE-2O4rqMEYWjvz-95" target="s8wQpAE-2O4rqMEYWjvz-69" edge="1">
          <mxGeometry relative="1" as="geometry" />
        </mxCell>
        <mxCell id="s8wQpAE-2O4rqMEYWjvz-94" value="&amp;lt;&amp;lt;Include&amp;gt;&amp;gt;" style="text;html=1;align=center;verticalAlign=middle;resizable=0;points=[];labelBackgroundColor=#ffffff;" parent="s8wQpAE-2O4rqMEYWjvz-93" vertex="1" connectable="0">
          <mxGeometry x="-0.2381" y="4" relative="1" as="geometry">
            <mxPoint x="4" y="-0.15000000000000036" as="offset" />
          </mxGeometry>
        </mxCell>
        <mxCell id="s8wQpAE-2O4rqMEYWjvz-95" value="BTW nummer instellen" style="ellipse;whiteSpace=wrap;html=1;" parent="1" vertex="1">
          <mxGeometry x="387" y="377.5" width="100" height="35" as="geometry" />
        </mxCell>
        <mxCell id="s8wQpAE-2O4rqMEYWjvz-96" style="edgeStyle=orthogonalEdgeStyle;rounded=0;orthogonalLoop=1;jettySize=auto;html=1;exitX=0.5;exitY=1;exitDx=0;exitDy=0;entryX=0.408;entryY=-0.05;entryDx=0;entryDy=0;entryPerimeter=0;endArrow=block;endFill=1;dashed=1;" parent="1" source="s8wQpAE-2O4rqMEYWjvz-98" target="s8wQpAE-2O4rqMEYWjvz-100" edge="1">
          <mxGeometry relative="1" as="geometry" />
        </mxCell>
        <mxCell id="s8wQpAE-2O4rqMEYWjvz-97" value="&amp;lt;&amp;lt;extend&amp;gt;&amp;gt;" style="text;html=1;align=center;verticalAlign=middle;resizable=0;points=[];labelBackgroundColor=#ffffff;" parent="s8wQpAE-2O4rqMEYWjvz-96" vertex="1" connectable="0">
          <mxGeometry x="0.1734" y="1" relative="1" as="geometry">
            <mxPoint as="offset" />
          </mxGeometry>
        </mxCell>
        <mxCell id="s8wQpAE-2O4rqMEYWjvz-98" value="Rekening beheren" style="ellipse;whiteSpace=wrap;html=1;" parent="1" vertex="1">
          <mxGeometry x="57" y="357.5" width="120" height="30" as="geometry" />
        </mxCell>
        <mxCell id="s8wQpAE-2O4rqMEYWjvz-99" style="edgeStyle=orthogonalEdgeStyle;rounded=0;orthogonalLoop=1;jettySize=auto;html=1;exitX=1;exitY=0.5;exitDx=0;exitDy=0;entryX=0;entryY=1;entryDx=0;entryDy=0;entryPerimeter=0;startArrow=none;startFill=0;endArrow=none;endFill=0;" parent="1" source="s8wQpAE-2O4rqMEYWjvz-100" target="s8wQpAE-2O4rqMEYWjvz-60" edge="1">
          <mxGeometry relative="1" as="geometry" />
        </mxCell>
        <mxCell id="s8wQpAE-2O4rqMEYWjvz-100" value="Rekening afprinten" style="ellipse;whiteSpace=wrap;html=1;" parent="1" vertex="1">
          <mxGeometry x="97" y="530" width="120" height="20" as="geometry" />
        </mxCell>
        <mxCell id="s8wQpAE-2O4rqMEYWjvz-101" style="edgeStyle=orthogonalEdgeStyle;rounded=0;orthogonalLoop=1;jettySize=auto;html=1;entryX=0;entryY=0.5;entryDx=0;entryDy=0;endArrow=none;endFill=0;" parent="1" source="s8wQpAE-2O4rqMEYWjvz-57" target="s8wQpAE-2O4rqMEYWjvz-100" edge="1">
          <mxGeometry relative="1" as="geometry">
            <mxPoint x="47" y="520" as="sourcePoint" />
            <mxPoint x="467" y="430" as="targetPoint" />
          </mxGeometry>
        </mxCell>
        <mxCell id="s8wQpAE-2O4rqMEYWjvz-102" value="Bevestiging voorschot" style="ellipse;whiteSpace=wrap;html=1;" parent="1" vertex="1">
          <mxGeometry x="510" y="230" width="120" height="40" as="geometry" />
        </mxCell>
        <mxCell id="s8wQpAE-2O4rqMEYWjvz-103" value="" style="curved=1;endArrow=block;html=1;exitX=1;exitY=0.5;exitDx=0;exitDy=0;endFill=1;" parent="1" source="s8wQpAE-2O4rqMEYWjvz-98" target="s8wQpAE-2O4rqMEYWjvz-59" edge="1">
          <mxGeometry width="50" height="50" relative="1" as="geometry">
            <mxPoint x="297" y="350" as="sourcePoint" />
            <mxPoint x="567" y="370" as="targetPoint" />
            <Array as="points">
              <mxPoint x="317" y="373" />
              <mxPoint x="307" y="330" />
              <mxPoint x="587" y="373" />
            </Array>
          </mxGeometry>
        </mxCell>
        <mxCell id="s8wQpAE-2O4rqMEYWjvz-104" value="&amp;lt;&amp;lt;include&amp;gt;&amp;gt;" style="text;html=1;align=center;verticalAlign=middle;resizable=0;points=[];labelBackgroundColor=#ffffff;" parent="s8wQpAE-2O4rqMEYWjvz-103" vertex="1" connectable="0">
          <mxGeometry x="-0.4254" y="-4" relative="1" as="geometry">
            <mxPoint as="offset" />
          </mxGeometry>
        </mxCell>
        <mxCell id="s8wQpAE-2O4rqMEYWjvz-105" value="&amp;lt;&amp;lt;include&amp;gt;&amp;gt;" style="text;html=1;align=center;verticalAlign=middle;resizable=0;points=[];autosize=1;" parent="1" vertex="1">
          <mxGeometry x="297" y="377.5" width="80" height="20" as="geometry" />
        </mxCell>
        <mxCell id="s8wQpAE-2O4rqMEYWjvz-106" value="Welkomstmail versturen" style="ellipse;whiteSpace=wrap;html=1;" parent="1" vertex="1">
          <mxGeometry x="362" y="670" width="120" height="40" as="geometry" />
        </mxCell>
        <mxCell id="s8wQpAE-2O4rqMEYWjvz-107" value="" style="endArrow=none;dashed=1;html=1;entryX=0.5;entryY=1;entryDx=0;entryDy=0;endFill=0;startArrow=open;startFill=0;" parent="1" target="s8wQpAE-2O4rqMEYWjvz-67" edge="1">
          <mxGeometry width="50" height="50" relative="1" as="geometry">
            <mxPoint x="414" y="670" as="sourcePoint" />
            <mxPoint x="464" y="620" as="targetPoint" />
          </mxGeometry>
        </mxCell>
        <mxCell id="s8wQpAE-2O4rqMEYWjvz-108" style="edgeStyle=orthogonalEdgeStyle;rounded=0;orthogonalLoop=1;jettySize=auto;html=1;exitX=0.5;exitY=1;exitDx=0;exitDy=0;startArrow=block;startFill=1;endArrow=none;endFill=0;" parent="1" source="s8wQpAE-2O4rqMEYWjvz-106" target="s8wQpAE-2O4rqMEYWjvz-106" edge="1">
          <mxGeometry relative="1" as="geometry" />
        </mxCell>
        <mxCell id="s8wQpAE-2O4rqMEYWjvz-109" value="" style="curved=1;endArrow=classic;html=1;exitX=1;exitY=0.5;exitDx=0;exitDy=0;" parent="1" source="s8wQpAE-2O4rqMEYWjvz-106" edge="1">
          <mxGeometry width="50" height="50" relative="1" as="geometry">
            <mxPoint x="297" y="350" as="sourcePoint" />
            <mxPoint x="777" y="80" as="targetPoint" />
            <Array as="points">
              <mxPoint x="747" y="410" />
              <mxPoint x="697" y="320" />
            </Array>
          </mxGeometry>
        </mxCell>
        <mxCell id="s8wQpAE-2O4rqMEYWjvz-110" value="&amp;lt;&amp;lt;include&amp;gt;&amp;gt;" style="text;html=1;align=center;verticalAlign=middle;resizable=0;points=[];labelBackgroundColor=#ffffff;" parent="s8wQpAE-2O4rqMEYWjvz-109" vertex="1" connectable="0">
          <mxGeometry x="0.0399" y="33" relative="1" as="geometry">
            <mxPoint x="6" y="-39" as="offset" />
          </mxGeometry>
        </mxCell>
        <mxCell id="s8wQpAE-2O4rqMEYWjvz-111" value="Inloggen" style="ellipse;whiteSpace=wrap;html=1;" parent="1" vertex="1">
          <mxGeometry x="27" y="80" width="60" height="30" as="geometry" />
        </mxCell>
        <mxCell id="s8wQpAE-2O4rqMEYWjvz-112" value="&amp;lt;&amp;lt;include&amp;gt;&amp;gt;" style="text;html=1;align=center;verticalAlign=middle;resizable=0;points=[];autosize=1;" parent="1" vertex="1">
          <mxGeometry x="397" y="640" width="80" height="20" as="geometry" />
        </mxCell>
        <mxCell id="s8wQpAE-2O4rqMEYWjvz-114" value="voorschot mail versturen" style="ellipse;whiteSpace=wrap;html=1;" parent="1" vertex="1">
          <mxGeometry x="402" y="750" width="120" height="80" as="geometry" />
        </mxCell>
        <mxCell id="IelOW2ZgtdpwlblZwPoc-4" value="&amp;lt;&amp;lt;Include&amp;gt;&amp;gt;" style="text;html=1;align=center;verticalAlign=middle;resizable=0;points=[];autosize=1;" parent="1" vertex="1">
          <mxGeometry x="560" y="200" width="80" height="20" as="geometry" />
        </mxCell>
        <mxCell id="GswID7gEWZNsvJA-uwoX-1" value="" style="endArrow=none;dashed=1;html=1;endFill=0;startArrow=open;startFill=0;" edge="1" parent="1" source="s8wQpAE-2O4rqMEYWjvz-114">
          <mxGeometry width="50" height="50" relative="1" as="geometry">
            <mxPoint x="397" y="760" as="sourcePoint" />
            <mxPoint x="447" y="710" as="targetPoint" />
          </mxGeometry>
        </mxCell>
        <mxCell id="GswID7gEWZNsvJA-uwoX-4" value="&amp;lt;&amp;lt;Include&amp;gt;&amp;gt;" style="text;html=1;align=center;verticalAlign=middle;resizable=0;points=[];autosize=1;" vertex="1" parent="1">
          <mxGeometry x="414" y="710" width="80" height="20" as="geometry" />
        </mxCell>
      </root>
    </mxGraphModel>
  </diagram>
</mxfile>
